<mxfile host="app.diagrams.net" modified="2024-02-27T16:45:23.982Z" agent="Mozilla/5.0 (Windows NT 10.0; Win64; x64) AppleWebKit/537.36 (KHTML, like Gecko) Chrome/122.0.0.0 Safari/537.36" etag="zSPBUfRbGWN91EQ5e3g7" version="23.1.7" type="device">
  <diagram id="C5RBs43oDa-KdzZeNtuy" name="Page-1">
    <mxGraphModel dx="1434" dy="746" grid="1" gridSize="10" guides="1" tooltips="1" connect="1" arrows="1" fold="1" page="1" pageScale="1" pageWidth="827" pageHeight="1169" math="0" shadow="0">
      <root>
        <mxCell id="WIyWlLk6GJQsqaUBKTNV-0" />
        <mxCell id="WIyWlLk6GJQsqaUBKTNV-1" parent="WIyWlLk6GJQsqaUBKTNV-0" />
        <mxCell id="T8dod99B3n7Jc7wyRoCB-0" value="User&lt;div&gt;&lt;br/&gt;&lt;/div&gt;" style="swimlane;fontStyle=1;align=center;verticalAlign=top;childLayout=stackLayout;horizontal=1;startSize=26;horizontalStack=0;resizeParent=1;resizeParentMax=0;resizeLast=0;collapsible=1;marginBottom=0;whiteSpace=wrap;html=1;" vertex="1" parent="WIyWlLk6GJQsqaUBKTNV-1">
          <mxGeometry x="100" y="310" width="310" height="150" as="geometry" />
        </mxCell>
        <mxCell id="T8dod99B3n7Jc7wyRoCB-1" value="&lt;div&gt;+ userID: String&lt;/div&gt;&lt;div&gt;+ username: String&lt;/div&gt;&lt;div&gt;+ password: String&lt;/div&gt;&lt;div&gt;+ userType: Enum (MarketingStaff, SpaceOwner)&lt;/div&gt;" style="text;strokeColor=none;fillColor=none;align=left;verticalAlign=top;spacingLeft=4;spacingRight=4;overflow=hidden;rotatable=0;points=[[0,0.5],[1,0.5]];portConstraint=eastwest;whiteSpace=wrap;html=1;" vertex="1" parent="T8dod99B3n7Jc7wyRoCB-0">
          <mxGeometry y="26" width="310" height="74" as="geometry" />
        </mxCell>
        <mxCell id="T8dod99B3n7Jc7wyRoCB-2" value="" style="line;strokeWidth=1;fillColor=none;align=left;verticalAlign=middle;spacingTop=-1;spacingLeft=3;spacingRight=3;rotatable=0;labelPosition=right;points=[];portConstraint=eastwest;strokeColor=inherit;" vertex="1" parent="T8dod99B3n7Jc7wyRoCB-0">
          <mxGeometry y="100" width="310" height="8" as="geometry" />
        </mxCell>
        <mxCell id="T8dod99B3n7Jc7wyRoCB-3" value="&lt;div&gt;+ login(username: String, password: String): Boolean&lt;/div&gt;&lt;div&gt;+ logout(): Void&lt;/div&gt;" style="text;strokeColor=none;fillColor=none;align=left;verticalAlign=top;spacingLeft=4;spacingRight=4;overflow=hidden;rotatable=0;points=[[0,0.5],[1,0.5]];portConstraint=eastwest;whiteSpace=wrap;html=1;" vertex="1" parent="T8dod99B3n7Jc7wyRoCB-0">
          <mxGeometry y="108" width="310" height="42" as="geometry" />
        </mxCell>
        <mxCell id="T8dod99B3n7Jc7wyRoCB-4" value="&lt;div&gt;BusinessSpace&lt;/div&gt;&lt;div&gt;&lt;br&gt;&lt;/div&gt;" style="swimlane;fontStyle=1;align=center;verticalAlign=top;childLayout=stackLayout;horizontal=1;startSize=26;horizontalStack=0;resizeParent=1;resizeParentMax=0;resizeLast=0;collapsible=1;marginBottom=0;whiteSpace=wrap;html=1;" vertex="1" parent="WIyWlLk6GJQsqaUBKTNV-1">
          <mxGeometry x="570" y="300" width="390" height="170" as="geometry" />
        </mxCell>
        <mxCell id="T8dod99B3n7Jc7wyRoCB-5" value="&lt;div&gt;+ paceID: String&lt;/div&gt;&lt;div&gt;+ type: Enum&amp;nbsp;&lt;/div&gt;&lt;div&gt;+ location: String&lt;/div&gt;&lt;div&gt;+ size: Integer&amp;nbsp;&lt;/div&gt;&lt;div&gt;+ rentalRate: Map&amp;lt;String, Float&amp;gt;&amp;nbsp;&lt;/div&gt;" style="text;strokeColor=none;fillColor=none;align=left;verticalAlign=top;spacingLeft=4;spacingRight=4;overflow=hidden;rotatable=0;points=[[0,0.5],[1,0.5]];portConstraint=eastwest;whiteSpace=wrap;html=1;" vertex="1" parent="T8dod99B3n7Jc7wyRoCB-4">
          <mxGeometry y="26" width="390" height="84" as="geometry" />
        </mxCell>
        <mxCell id="T8dod99B3n7Jc7wyRoCB-6" value="" style="line;strokeWidth=1;fillColor=none;align=left;verticalAlign=middle;spacingTop=-1;spacingLeft=3;spacingRight=3;rotatable=0;labelPosition=right;points=[];portConstraint=eastwest;strokeColor=inherit;" vertex="1" parent="T8dod99B3n7Jc7wyRoCB-4">
          <mxGeometry y="110" width="390" height="8" as="geometry" />
        </mxCell>
        <mxCell id="T8dod99B3n7Jc7wyRoCB-7" value="&lt;div&gt;+ registerSpace(spaceInfo: BusinessSpace): String&lt;/div&gt;&lt;div&gt;+ updateRentalRate(newRate: Map&amp;lt;String, Float&amp;gt;): Void&lt;/div&gt;&lt;div&gt;+ checkAvailability(startDate: Date, endDate: Date): Boolean&lt;/div&gt;" style="text;strokeColor=none;fillColor=none;align=left;verticalAlign=top;spacingLeft=4;spacingRight=4;overflow=hidden;rotatable=0;points=[[0,0.5],[1,0.5]];portConstraint=eastwest;whiteSpace=wrap;html=1;" vertex="1" parent="T8dod99B3n7Jc7wyRoCB-4">
          <mxGeometry y="118" width="390" height="52" as="geometry" />
        </mxCell>
        <mxCell id="T8dod99B3n7Jc7wyRoCB-12" value="Booking" style="swimlane;fontStyle=1;align=center;verticalAlign=top;childLayout=stackLayout;horizontal=1;startSize=26;horizontalStack=0;resizeParent=1;resizeParentMax=0;resizeLast=0;collapsible=1;marginBottom=0;whiteSpace=wrap;html=1;" vertex="1" parent="WIyWlLk6GJQsqaUBKTNV-1">
          <mxGeometry x="630" y="570" width="290" height="170" as="geometry" />
        </mxCell>
        <mxCell id="T8dod99B3n7Jc7wyRoCB-13" value="&lt;div&gt;+ bookingID: String&lt;/div&gt;&lt;div&gt;+ spaceID: String&lt;/div&gt;&lt;div&gt;+ userID: String&lt;/div&gt;&lt;div&gt;+ startDate: Date&lt;/div&gt;&lt;div&gt;+ endDate: Date&lt;/div&gt;&lt;div&gt;+ totalCost: Float&lt;/div&gt;" style="text;strokeColor=none;fillColor=none;align=left;verticalAlign=top;spacingLeft=4;spacingRight=4;overflow=hidden;rotatable=0;points=[[0,0.5],[1,0.5]];portConstraint=eastwest;whiteSpace=wrap;html=1;" vertex="1" parent="T8dod99B3n7Jc7wyRoCB-12">
          <mxGeometry y="26" width="290" height="94" as="geometry" />
        </mxCell>
        <mxCell id="T8dod99B3n7Jc7wyRoCB-14" value="" style="line;strokeWidth=1;fillColor=none;align=left;verticalAlign=middle;spacingTop=-1;spacingLeft=3;spacingRight=3;rotatable=0;labelPosition=right;points=[];portConstraint=eastwest;strokeColor=inherit;" vertex="1" parent="T8dod99B3n7Jc7wyRoCB-12">
          <mxGeometry y="120" width="290" height="8" as="geometry" />
        </mxCell>
        <mxCell id="T8dod99B3n7Jc7wyRoCB-15" value="&lt;div&gt;+ createBooking(bookingDetails: Booking): String&lt;/div&gt;&lt;div&gt;+ cancelBooking(bookingID: String): Boolean&lt;/div&gt;" style="text;strokeColor=none;fillColor=none;align=left;verticalAlign=top;spacingLeft=4;spacingRight=4;overflow=hidden;rotatable=0;points=[[0,0.5],[1,0.5]];portConstraint=eastwest;whiteSpace=wrap;html=1;" vertex="1" parent="T8dod99B3n7Jc7wyRoCB-12">
          <mxGeometry y="128" width="290" height="42" as="geometry" />
        </mxCell>
        <mxCell id="T8dod99B3n7Jc7wyRoCB-16" value="Report" style="swimlane;fontStyle=1;align=center;verticalAlign=top;childLayout=stackLayout;horizontal=1;startSize=26;horizontalStack=0;resizeParent=1;resizeParentMax=0;resizeLast=0;collapsible=1;marginBottom=0;whiteSpace=wrap;html=1;" vertex="1" parent="WIyWlLk6GJQsqaUBKTNV-1">
          <mxGeometry x="40" y="620" width="330" height="114" as="geometry" />
        </mxCell>
        <mxCell id="T8dod99B3n7Jc7wyRoCB-17" value="&lt;div&gt;+ reportID: String&lt;/div&gt;&lt;div&gt;+ reportType: Enum&amp;nbsp;&lt;/div&gt;&lt;div&gt;+ dateRange: String&lt;/div&gt;" style="text;strokeColor=none;fillColor=none;align=left;verticalAlign=top;spacingLeft=4;spacingRight=4;overflow=hidden;rotatable=0;points=[[0,0.5],[1,0.5]];portConstraint=eastwest;whiteSpace=wrap;html=1;" vertex="1" parent="T8dod99B3n7Jc7wyRoCB-16">
          <mxGeometry y="26" width="330" height="54" as="geometry" />
        </mxCell>
        <mxCell id="T8dod99B3n7Jc7wyRoCB-18" value="" style="line;strokeWidth=1;fillColor=none;align=left;verticalAlign=middle;spacingTop=-1;spacingLeft=3;spacingRight=3;rotatable=0;labelPosition=right;points=[];portConstraint=eastwest;strokeColor=inherit;" vertex="1" parent="T8dod99B3n7Jc7wyRoCB-16">
          <mxGeometry y="80" width="330" height="8" as="geometry" />
        </mxCell>
        <mxCell id="T8dod99B3n7Jc7wyRoCB-19" value="+ generateReport(type: Enum, dateRange: String): String" style="text;strokeColor=none;fillColor=none;align=left;verticalAlign=top;spacingLeft=4;spacingRight=4;overflow=hidden;rotatable=0;points=[[0,0.5],[1,0.5]];portConstraint=eastwest;whiteSpace=wrap;html=1;" vertex="1" parent="T8dod99B3n7Jc7wyRoCB-16">
          <mxGeometry y="88" width="330" height="26" as="geometry" />
        </mxCell>
        <mxCell id="T8dod99B3n7Jc7wyRoCB-20" value="Complaint" style="swimlane;fontStyle=1;align=center;verticalAlign=top;childLayout=stackLayout;horizontal=1;startSize=26;horizontalStack=0;resizeParent=1;resizeParentMax=0;resizeLast=0;collapsible=1;marginBottom=0;whiteSpace=wrap;html=1;" vertex="1" parent="WIyWlLk6GJQsqaUBKTNV-1">
          <mxGeometry x="250" y="30" width="390" height="170" as="geometry" />
        </mxCell>
        <mxCell id="T8dod99B3n7Jc7wyRoCB-21" value="&lt;div&gt;+ complaintID: String&lt;/div&gt;&lt;div&gt;+ userID: String&lt;/div&gt;&lt;div&gt;+ spaceID: String&lt;/div&gt;&lt;div&gt;+ type: Enum&amp;nbsp;&lt;/div&gt;&lt;div&gt;+ description: String&lt;/div&gt;&lt;div&gt;+ status: Enum&lt;/div&gt;" style="text;strokeColor=none;fillColor=none;align=left;verticalAlign=top;spacingLeft=4;spacingRight=4;overflow=hidden;rotatable=0;points=[[0,0.5],[1,0.5]];portConstraint=eastwest;whiteSpace=wrap;html=1;" vertex="1" parent="T8dod99B3n7Jc7wyRoCB-20">
          <mxGeometry y="26" width="390" height="94" as="geometry" />
        </mxCell>
        <mxCell id="T8dod99B3n7Jc7wyRoCB-22" value="" style="line;strokeWidth=1;fillColor=none;align=left;verticalAlign=middle;spacingTop=-1;spacingLeft=3;spacingRight=3;rotatable=0;labelPosition=right;points=[];portConstraint=eastwest;strokeColor=inherit;" vertex="1" parent="T8dod99B3n7Jc7wyRoCB-20">
          <mxGeometry y="120" width="390" height="8" as="geometry" />
        </mxCell>
        <mxCell id="T8dod99B3n7Jc7wyRoCB-23" value="&lt;div&gt;+ registerComplaint(complaintDetails: Complaint): String&lt;/div&gt;&lt;div&gt;+ updateComplaintStatus(complaintID: String, newStatus: Enum): Void&lt;/div&gt;" style="text;strokeColor=none;fillColor=none;align=left;verticalAlign=top;spacingLeft=4;spacingRight=4;overflow=hidden;rotatable=0;points=[[0,0.5],[1,0.5]];portConstraint=eastwest;whiteSpace=wrap;html=1;" vertex="1" parent="T8dod99B3n7Jc7wyRoCB-20">
          <mxGeometry y="128" width="390" height="42" as="geometry" />
        </mxCell>
        <mxCell id="T8dod99B3n7Jc7wyRoCB-24" value="" style="endArrow=none;html=1;edgeStyle=orthogonalEdgeStyle;rounded=0;" edge="1" parent="WIyWlLk6GJQsqaUBKTNV-1">
          <mxGeometry relative="1" as="geometry">
            <mxPoint x="410" y="384.5" as="sourcePoint" />
            <mxPoint x="570" y="384.5" as="targetPoint" />
          </mxGeometry>
        </mxCell>
        <mxCell id="T8dod99B3n7Jc7wyRoCB-27" value="" style="endArrow=none;html=1;edgeStyle=orthogonalEdgeStyle;rounded=0;" edge="1" parent="WIyWlLk6GJQsqaUBKTNV-1">
          <mxGeometry relative="1" as="geometry">
            <mxPoint x="790" y="470" as="sourcePoint" />
            <mxPoint x="790" y="570" as="targetPoint" />
          </mxGeometry>
        </mxCell>
        <mxCell id="T8dod99B3n7Jc7wyRoCB-28" value="parent" style="edgeLabel;resizable=0;html=1;align=left;verticalAlign=bottom;" connectable="0" vertex="1" parent="T8dod99B3n7Jc7wyRoCB-27">
          <mxGeometry x="-1" relative="1" as="geometry" />
        </mxCell>
        <mxCell id="T8dod99B3n7Jc7wyRoCB-33" value="*" style="edgeLabel;html=1;align=center;verticalAlign=middle;resizable=0;points=[];" vertex="1" connectable="0" parent="T8dod99B3n7Jc7wyRoCB-27">
          <mxGeometry x="0.76" y="9" relative="1" as="geometry">
            <mxPoint as="offset" />
          </mxGeometry>
        </mxCell>
        <mxCell id="T8dod99B3n7Jc7wyRoCB-34" value="1" style="edgeLabel;html=1;align=center;verticalAlign=middle;resizable=0;points=[];" vertex="1" connectable="0" parent="T8dod99B3n7Jc7wyRoCB-27">
          <mxGeometry x="-0.86" y="9" relative="1" as="geometry">
            <mxPoint as="offset" />
          </mxGeometry>
        </mxCell>
        <mxCell id="T8dod99B3n7Jc7wyRoCB-35" value="" style="endArrow=none;html=1;edgeStyle=orthogonalEdgeStyle;rounded=0;entryX=-0.024;entryY=0.617;entryDx=0;entryDy=0;entryPerimeter=0;" edge="1" parent="WIyWlLk6GJQsqaUBKTNV-1" target="T8dod99B3n7Jc7wyRoCB-13">
          <mxGeometry relative="1" as="geometry">
            <mxPoint x="380" y="460" as="sourcePoint" />
            <mxPoint x="540" y="460" as="targetPoint" />
          </mxGeometry>
        </mxCell>
        <mxCell id="T8dod99B3n7Jc7wyRoCB-43" value="" style="endArrow=none;html=1;edgeStyle=orthogonalEdgeStyle;rounded=0;" edge="1" parent="WIyWlLk6GJQsqaUBKTNV-1">
          <mxGeometry relative="1" as="geometry">
            <mxPoint x="320" y="300" as="sourcePoint" />
            <mxPoint x="320" y="200" as="targetPoint" />
          </mxGeometry>
        </mxCell>
        <mxCell id="T8dod99B3n7Jc7wyRoCB-47" value="*" style="edgeLabel;html=1;align=center;verticalAlign=middle;resizable=0;points=[];" vertex="1" connectable="0" parent="T8dod99B3n7Jc7wyRoCB-43">
          <mxGeometry x="0.54" y="-7" relative="1" as="geometry">
            <mxPoint as="offset" />
          </mxGeometry>
        </mxCell>
        <mxCell id="T8dod99B3n7Jc7wyRoCB-48" value="1" style="edgeLabel;html=1;align=center;verticalAlign=middle;resizable=0;points=[];" vertex="1" connectable="0" parent="T8dod99B3n7Jc7wyRoCB-43">
          <mxGeometry x="-0.9" y="-7" relative="1" as="geometry">
            <mxPoint as="offset" />
          </mxGeometry>
        </mxCell>
        <mxCell id="T8dod99B3n7Jc7wyRoCB-49" value="" style="endArrow=none;html=1;edgeStyle=orthogonalEdgeStyle;rounded=0;entryX=0.615;entryY=0;entryDx=0;entryDy=0;entryPerimeter=0;" edge="1" parent="WIyWlLk6GJQsqaUBKTNV-1" target="T8dod99B3n7Jc7wyRoCB-4">
          <mxGeometry relative="1" as="geometry">
            <mxPoint x="640" y="140" as="sourcePoint" />
            <mxPoint x="811" y="290" as="targetPoint" />
            <Array as="points">
              <mxPoint x="811" y="140" />
              <mxPoint x="811" y="300" />
            </Array>
          </mxGeometry>
        </mxCell>
        <mxCell id="T8dod99B3n7Jc7wyRoCB-52" value="" style="endArrow=none;html=1;edgeStyle=orthogonalEdgeStyle;rounded=0;" edge="1" parent="WIyWlLk6GJQsqaUBKTNV-1">
          <mxGeometry relative="1" as="geometry">
            <mxPoint x="220" y="460" as="sourcePoint" />
            <mxPoint x="220" y="620" as="targetPoint" />
          </mxGeometry>
        </mxCell>
      </root>
    </mxGraphModel>
  </diagram>
</mxfile>
